<svg width="98" height="221" viewBox="0 0 98 221" fill="none" xmlns="http://www.w3.org/2000/svg">
<g filter="url(#filter0_d_1_937)">
<path d="M93.0125 81.0259L79.8831 103.767H53.6243L40.4949 81.0259L53.6243 58.2851L79.8831 58.2851L93.0125 81.0259Z" fill="url(#paint0_linear_1_937)"/>
<path d="M132.012 58.4309L118.882 81.1716H92.6236L79.4942 58.4309L92.6236 35.6901L118.882 35.6901L132.012 58.4309Z" fill="url(#paint1_linear_1_937)"/>
<path d="M132.132 148.602L119.003 171.343H92.7442L79.6148 148.602L92.7442 125.862L119.003 125.862L132.132 148.602Z" fill="url(#paint2_linear_1_937)"/>
<path d="M93.0728 126.112L79.9434 148.852H53.6846L40.5552 126.112L53.6846 103.371L79.9434 103.371L93.0728 126.112Z" fill="url(#paint3_linear_1_937)"/>
<path d="M92.9521 35.9402L79.8228 58.6809L53.564 58.6809L40.4346 35.9402L53.564 13.1994L79.8228 13.1994L92.9521 35.9402Z" fill="url(#paint4_linear_1_937)"/>
<path d="M54.0134 103.621L40.884 126.362H14.6253L1.4959 103.621L14.6253 80.8803L40.884 80.8803L54.0134 103.621Z" fill="url(#paint5_linear_1_937)"/>
<path d="M132.155 13.3901L119.026 36.1309L92.7669 36.1309L79.6375 13.3901L92.7669 -9.35065L119.026 -9.35065L132.155 13.3901Z" fill="url(#paint6_linear_1_937)"/>
<path d="M132.288 13.3447L119.158 36.0855L92.8997 36.0855L79.7703 13.3447L92.8997 -9.39606L119.158 -9.39606L132.288 13.3447Z" fill="url(#paint7_linear_1_937)"/>
<path d="M93.1143 171.365L79.9849 194.106H53.7261L40.5967 171.365L53.7261 148.625H79.9849L93.1143 171.365Z" fill="url(#paint8_linear_1_937)"/>
<path d="M132.219 193.811L119.089 216.551H92.8306L79.7012 193.811L92.8306 171.07H119.089L132.219 193.811Z" fill="url(#paint9_linear_1_937)"/>
</g>
<defs>
<filter id="filter0_d_1_937" x="0.49585" y="-12.9141" width="171.852" height="234.983" filterUnits="userSpaceOnUse" color-interpolation-filters="sRGB">
<feFlood flood-opacity="0" result="BackgroundImageFix"/>
<feColorMatrix in="SourceAlpha" type="matrix" values="0 0 0 0 0 0 0 0 0 0 0 0 0 0 0 0 0 0 127 0" result="hardAlpha"/>
<feOffset dy="1"/>
<feGaussianBlur stdDeviation="0.5"/>
<feComposite in2="hardAlpha" operator="out"/>
<feColorMatrix type="matrix" values="0 0 0 0 1 0 0 0 0 0.541533 0 0 0 0 0.118333 0 0 0 1 0"/>
<feBlend mode="normal" in2="BackgroundImageFix" result="effect1_dropShadow_1_937"/>
<feBlend mode="normal" in="SourceGraphic" in2="effect1_dropShadow_1_937" result="shape"/>
</filter>
<linearGradient id="paint0_linear_1_937" x1="66.7537" y1="65.0737" x2="66.7537" y2="121.136" gradientUnits="userSpaceOnUse">
<stop offset="0.1125" stop-color="#FF8A1E"/>
<stop offset="0.8625" stop-color="#FFF9D8"/>
</linearGradient>
<linearGradient id="paint1_linear_1_937" x1="105.753" y1="42.4787" x2="105.753" y2="98.5411" gradientUnits="userSpaceOnUse">
<stop offset="0.1125" stop-color="#FF8A1E"/>
<stop offset="0.8625" stop-color="#FFF9D8"/>
</linearGradient>
<linearGradient id="paint2_linear_1_937" x1="105.874" y1="132.65" x2="105.874" y2="188.713" gradientUnits="userSpaceOnUse">
<stop offset="0.1125" stop-color="#FF8A1E"/>
<stop offset="0.8625" stop-color="#FFF9D8"/>
</linearGradient>
<linearGradient id="paint3_linear_1_937" x1="66.814" y1="110.159" x2="66.814" y2="166.222" gradientUnits="userSpaceOnUse">
<stop offset="0.1125" stop-color="#FF8A1E"/>
<stop offset="0.8625" stop-color="#FFF9D8"/>
</linearGradient>
<linearGradient id="paint4_linear_1_937" x1="66.6934" y1="19.988" x2="66.6934" y2="76.0504" gradientUnits="userSpaceOnUse">
<stop offset="0.1125" stop-color="#FF8A1E"/>
<stop offset="0.8625" stop-color="#FFF9D8"/>
</linearGradient>
<linearGradient id="paint5_linear_1_937" x1="27.7547" y1="87.6689" x2="27.7547" y2="143.731" gradientUnits="userSpaceOnUse">
<stop offset="0.1125" stop-color="#FF8A1E"/>
<stop offset="0.8625" stop-color="#FFF9D8"/>
</linearGradient>
<linearGradient id="paint6_linear_1_937" x1="105.896" y1="-2.56209" x2="105.896" y2="53.5004" gradientUnits="userSpaceOnUse">
<stop offset="0.1125" stop-color="#FF8A1E"/>
<stop offset="0.8625" stop-color="#FFF9D8"/>
</linearGradient>
<linearGradient id="paint7_linear_1_937" x1="106.029" y1="-2.6075" x2="106.029" y2="53.455" gradientUnits="userSpaceOnUse">
<stop offset="0.1125" stop-color="#FF8A1E"/>
<stop offset="0.8625" stop-color="#FFF9D8"/>
</linearGradient>
<linearGradient id="paint8_linear_1_937" x1="66.8555" y1="155.413" x2="66.8555" y2="211.476" gradientUnits="userSpaceOnUse">
<stop offset="0.1125" stop-color="#FF8A1E"/>
<stop offset="0.8625" stop-color="#FFF9D8"/>
</linearGradient>
<linearGradient id="paint9_linear_1_937" x1="105.96" y1="177.858" x2="105.96" y2="233.921" gradientUnits="userSpaceOnUse">
<stop offset="0.1125" stop-color="#FF8A1E"/>
<stop offset="0.8625" stop-color="#FFF9D8"/>
</linearGradient>
</defs>
</svg>
