<svg width="100" height="100" viewBox="0 0 100 100" fill="none" xmlns="http://www.w3.org/2000/svg">
<path d="M69.9876 47.7514V47.7511C69.9223 47.1959 69.5995 46.6842 69.102 46.3451L66.8254 44.7658L67.6811 42.2501C67.8636 41.7133 67.7879 41.1268 67.4733 40.6406C67.1583 40.1547 66.6261 39.8031 66.013 39.6753L63.1489 39.0796L62.7833 36.4795C62.7049 35.9226 62.368 35.4142 61.859 35.0851C61.3493 34.7548 60.702 34.6262 60.084 34.7322L57.1955 35.2257L55.6742 32.9827C55.0688 32.09 53.7974 31.7528 52.7177 32.1977C52.6417 32.229 52.5685 32.2665 52.5047 32.3067L49.9976 33.8626L47.584 32.3646C47.0673 32.0443 46.4182 31.9277 45.8024 32.0441C45.1865 32.1604 44.6464 32.503 44.3207 32.9832L42.8001 35.226L39.9112 34.7322C39.2927 34.6267 38.646 34.7553 38.1373 35.0849C37.6276 35.4147 37.2907 35.9232 37.2126 36.4795L36.847 39.0798L33.8178 39.7098L33.6756 39.7512L33.6231 39.7716C32.5226 40.2004 31.9721 41.2429 32.3145 42.2501L33.1699 44.7658L30.7956 46.4114L30.658 46.518L30.6192 46.5558C29.8224 47.3313 29.7913 48.5043 30.5451 49.2885L32.4039 51.2692L30.8972 53.7052L30.8371 53.8271L30.8197 53.8725C30.4441 54.8728 30.9558 55.9599 32.0099 56.4007L34.6723 57.5139L34.4229 60.1248C34.3695 60.6842 34.5807 61.244 35.0019 61.6606C35.423 62.0775 36.0257 62.323 36.6556 62.3344L39.596 62.3866L40.5604 64.8619C40.7667 65.3921 41.215 65.8271 41.7899 66.055C42.3649 66.2831 43.0274 66.2891 43.6085 66.0713L46.3187 65.0536L48.4461 67.0763L48.5575 67.1647L48.6005 67.1932C49.0208 67.4698 49.5118 67.6052 49.9983 67.6052C50.6138 67.6052 51.2217 67.3882 51.6664 66.9654L53.6775 65.0536L56.388 66.0716C56.9679 66.2891 57.6301 66.2831 58.2051 66.0553C58.7806 65.8271 59.2289 65.3921 59.4352 64.8621L60.3999 62.3866L63.5103 62.3314L63.658 62.317L63.7111 62.3075C64.8707 62.0968 65.6712 61.1584 65.5726 60.1251L65.3236 57.5139L67.9863 56.4007C68.5561 56.1625 68.9946 55.7198 69.1893 55.1861C69.3837 54.6526 69.3211 54.0647 69.0172 53.5734L67.592 51.2692L69.4511 49.2885C69.8573 48.8657 70.0529 48.3061 69.9876 47.7514ZM50.1222 58.6796C44.6299 58.6796 40.1615 54.6983 40.1615 49.8046C40.1615 44.9107 44.6299 40.9297 50.1222 40.9297C55.6147 40.9297 60.0831 44.9107 60.0831 49.8046C60.0831 54.6983 55.6144 58.6796 50.1222 58.6796Z" fill="url(#paint0_linear_1_116)"/>
<path d="M50.1222 43.0193C45.9233 43.0193 42.5068 46.0631 42.5068 49.8046C42.5068 53.5459 45.9233 56.5897 50.1222 56.5897C54.3214 56.5897 57.7376 53.5459 57.7376 49.8046C57.7376 46.0631 54.3214 43.0193 50.1222 43.0193ZM54.6437 48.5266L49.1878 53.3876C48.9589 53.5918 48.6589 53.6938 48.3586 53.6938C48.0586 53.6938 47.7583 53.5918 47.5294 53.3876L45.4448 51.5302C44.9867 51.122 44.9867 50.4605 45.4448 50.0523C45.9025 49.6445 46.645 49.6445 47.1031 50.0523L48.3589 51.1713L52.9854 47.049C53.4432 46.6409 54.186 46.6409 54.6437 47.049C55.1018 47.4569 55.1018 48.1185 54.6437 48.5266Z" fill="url(#paint1_linear_1_116)"/>
<path d="M7.19873 25.2887L50 0.57735L92.8013 25.2887V74.7113L50 99.4226L7.19873 74.7113V25.2887Z" stroke="url(#paint2_linear_1_116)"/>
<defs>
<linearGradient id="paint0_linear_1_116" x1="37.85" y1="49.8026" x2="80.55" y2="49.8026" gradientUnits="userSpaceOnUse">
<stop offset="0.1125" stop-color="#FF8A1E"/>
<stop offset="0.8625" stop-color="#FFF9D8"/>
</linearGradient>
<linearGradient id="paint1_linear_1_116" x1="45.4959" y1="49.8045" x2="61.7547" y2="49.8045" gradientUnits="userSpaceOnUse">
<stop offset="0.1125" stop-color="#FF8A1E"/>
<stop offset="0.8625" stop-color="#FFF9D8"/>
</linearGradient>
<linearGradient id="paint2_linear_1_116" x1="19.625" y1="50" x2="126.375" y2="50" gradientUnits="userSpaceOnUse">
<stop offset="0.1125" stop-color="#FF8A1E"/>
<stop offset="0.8625" stop-color="#FFF9D8"/>
</linearGradient>
</defs>
</svg>
