<svg width="100" height="100" viewBox="0 0 100 100" fill="none" xmlns="http://www.w3.org/2000/svg">
<g id="icon ">
<path id="Vector" d="M32.9643 65.3799L34.5714 65.3799L34.5714 33.669C34.5714 32.7472 35.4349 32 36.5 32L63.5 32C64.5651 32 65.4286 32.7472 65.4286 33.669L65.4286 65.3799L67.0357 65.3799C67.5682 65.3799 68 65.7535 68 66.2144L68 67.6052L32 67.6052L32 66.2144C32 65.7535 32.4318 65.3799 32.9643 65.3799ZM57.7143 37.2851C57.7143 36.8243 57.2825 36.4506 56.75 36.4506L53.5357 36.4506C53.0032 36.4506 52.5714 36.8243 52.5714 37.2851L52.5714 40.0668C52.5714 40.5277 53.0032 40.9013 53.5357 40.9013L56.75 40.9013C57.2825 40.9013 57.7143 40.5277 57.7143 40.0668L57.7143 37.2851ZM57.7143 43.9611C57.7143 43.5003 57.2825 43.1266 56.75 43.1266L53.5357 43.1266C53.0032 43.1266 52.5714 43.5003 52.5714 43.9611L52.5714 46.7428C52.5714 47.2036 53.0032 47.5773 53.5357 47.5773L56.75 47.5773C57.2825 47.5773 57.7143 47.2036 57.7143 46.7428L57.7143 43.9611ZM53.5357 54.2532L56.75 54.2532C57.2825 54.2532 57.7143 53.8796 57.7143 53.4187L57.7143 50.6371C57.7143 50.1762 57.2825 49.8026 56.75 49.8026L53.5357 49.8026C53.0032 49.8026 52.5714 50.1762 52.5714 50.6371L52.5714 53.4187C52.5714 53.8796 53.0032 54.2532 53.5357 54.2532ZM47.4286 65.3799L52.5714 65.3799L52.5714 59.5384C52.5714 59.0775 52.1397 58.7039 51.6071 58.7039L48.3929 58.7039C47.8603 58.7039 47.4286 59.0775 47.4286 59.5384L47.4286 65.3799ZM42.2857 53.4187C42.2857 53.8796 42.7175 54.2532 43.25 54.2532L46.4643 54.2532C46.9968 54.2532 47.4286 53.8796 47.4286 53.4187L47.4286 50.6371C47.4286 50.1762 46.9968 49.8026 46.4643 49.8026L43.25 49.8026C42.7175 49.8026 42.2857 50.1762 42.2857 50.6371L42.2857 53.4187ZM42.2857 46.7428C42.2857 47.2036 42.7175 47.5773 43.25 47.5773L46.4643 47.5773C46.9968 47.5773 47.4286 47.2036 47.4286 46.7428L47.4286 43.9611C47.4286 43.5003 46.9968 43.1266 46.4643 43.1266L43.25 43.1266C42.7175 43.1266 42.2857 43.5003 42.2857 43.9611L42.2857 46.7428ZM42.2857 40.0668C42.2857 40.5277 42.7175 40.9013 43.25 40.9013L46.4643 40.9013C46.9968 40.9013 47.4286 40.5277 47.4286 40.0668L47.4286 37.2851C47.4286 36.8243 46.9968 36.4506 46.4643 36.4506L43.25 36.4506C42.7175 36.4506 42.2857 36.8243 42.2857 37.2851L42.2857 40.0668Z" fill="url(#paint0_linear_1_61)"/>
<path id="Polygon 7" d="M7.19873 25.2887L50 0.57735L92.8013 25.2887V74.7113L50 99.4226L7.19873 74.7113V25.2887Z" stroke="url(#paint1_linear_1_61)"/>
</g>
<defs>
<linearGradient id="paint0_linear_1_61" x1="60.935" y1="49.8026" x2="22.505" y2="49.8026" gradientUnits="userSpaceOnUse">
<stop offset="0.1125" stop-color="#FF8A1E"/>
<stop offset="0.8625" stop-color="#FFF9D8"/>
</linearGradient>
<linearGradient id="paint1_linear_1_61" x1="19.625" y1="50" x2="126.375" y2="50" gradientUnits="userSpaceOnUse">
<stop offset="0.1125" stop-color="#FF8A1E"/>
<stop offset="0.8625" stop-color="#FFF9D8"/>
</linearGradient>
</defs>
</svg>
