<svg width="100" height="100" viewBox="0 0 100 100" fill="none" xmlns="http://www.w3.org/2000/svg">
<path d="M7.19873 25.2887L50 0.57735L92.8013 25.2887V74.7113L50 99.4226L7.19873 74.7113V25.2887Z" stroke="url(#paint0_linear_1_149)"/>
<path d="M53.679 48.9726C53.6184 48.9282 53.562 48.8727 53.5176 48.8113C50.4532 45.7489 47.9694 43.2721 47.7235 43.0322C45.1993 40.5272 47.1146 37.3105 50.0782 36.1805C50.7718 35.9195 51.4774 35.8469 52.2031 35.745C52.3786 35.7249 52.7475 35.7219 53.1145 35.7199C53.8765 35.7088 53.816 34.6806 53.1104 34.5738C52.7152 34.5173 52.2737 34.4528 52.0539 34.4366C48.0863 34.0809 43.8565 35.5041 39.8566 39.5061C39.5724 39.7974 39.274 40.0837 38.9856 40.376C38.272 43.2863 36.3567 44.1118 35.4373 44.3437C35.01 43.9758 34.3587 43.9919 33.9495 44.3991C33.8608 44.4898 33.7882 44.5886 33.7398 44.6995L32.881 45.5482C32.4576 45.9696 32.4576 46.6501 32.881 47.0684L37.0583 51.2286C37.4736 51.6459 38.1611 51.6459 38.5825 51.2286L39.3889 50.4201C39.5119 50.3697 39.6268 50.2931 39.7276 50.1923C40.0885 49.8345 40.1469 49.2921 39.905 48.8708C39.907 48.8678 39.907 48.8627 39.9091 48.8576C39.9313 48.7901 39.9534 48.7175 39.9816 48.6389C40.0179 48.5401 40.0603 48.4423 40.1026 48.3425C40.1288 48.3012 40.149 48.2528 40.1732 48.2034C40.2398 48.0885 40.3204 47.9827 40.397 47.8839C40.5663 47.6943 40.768 47.5271 41.0341 47.4232C42.7276 46.7569 44.3969 47.8557 45.2134 48.5281C45.28 48.5865 47.8605 51.1701 50.9693 54.288L52.2616 55.5823C56.8079 60.1428 61.8804 65.2273 61.8804 65.2273L66.098 61.3726C66.098 61.3726 61.6023 56.8887 57.0619 52.3445L53.679 48.9726Z" fill="url(#paint1_linear_1_149)"/>
<path d="M66.9609 37.2732L63.1907 34.5949C62.6705 34.2249 61.9489 34.3468 61.5819 34.8741C61.3601 35.1755 61.336 35.5475 61.4368 35.8781C61.1908 35.9194 60.973 36.0545 60.7916 36.241L60.7635 36.2198L53.8482 45.9737C54.0499 46.6934 54.0016 47.4726 53.679 48.1813L54.7555 48.9554L54.3039 49.5936C54.0377 49.3305 53.7756 49.0704 53.5176 48.8113C53.5619 48.8728 53.6184 48.9282 53.679 48.9726L57.0619 52.3445C56.5741 51.8657 56.086 51.3778 55.6023 50.8939L56.2231 50.0159L57.2513 50.7568C57.824 50.2104 58.5456 49.8939 59.3038 49.8496L66.1303 40.2308L66.231 40.0967L66.1988 40.0776C66.3239 39.8417 66.3722 39.5887 66.3319 39.3508C66.6786 39.3417 67.0133 39.1905 67.231 38.8831C67.602 38.366 67.4811 37.6442 66.9609 37.2732ZM56.6869 45.9575L56.0539 45.511L61.1867 38.2823L61.8118 38.7309L56.6869 45.9575ZM59.0376 47.6339L58.4126 47.1843L63.5416 39.9567L64.1746 40.4022L59.0376 47.6339Z" fill="url(#paint2_linear_1_149)"/>
<path d="M46.7073 60.2799L46.5883 60.1952L44.8001 61.8928L43.2517 64.9612L44.8565 66.1064L47.2738 63.6548L48.2959 61.4089L48.183 61.3323L52.2616 55.5824L50.9692 54.2881L46.7073 60.2799Z" fill="url(#paint3_linear_1_149)"/>
<defs>
<linearGradient id="paint0_linear_1_149" x1="19.625" y1="50" x2="126.375" y2="50" gradientUnits="userSpaceOnUse">
<stop offset="0.1125" stop-color="#FF8A1E"/>
<stop offset="0.8625" stop-color="#FFF9D8"/>
</linearGradient>
<linearGradient id="paint1_linear_1_149" x1="39.1446" y1="49.8057" x2="74.9428" y2="49.8057" gradientUnits="userSpaceOnUse">
<stop offset="0.1125" stop-color="#FF8A1E"/>
<stop offset="0.8625" stop-color="#FFF9D8"/>
</linearGradient>
<linearGradient id="paint2_linear_1_149" x1="56.251" y1="43.3629" x2="71.1197" y2="43.3629" gradientUnits="userSpaceOnUse">
<stop offset="0.1125" stop-color="#FF8A1E"/>
<stop offset="0.8625" stop-color="#FFF9D8"/>
</linearGradient>
<linearGradient id="paint3_linear_1_149" x1="45.0199" y1="60.1972" x2="54.6379" y2="60.1972" gradientUnits="userSpaceOnUse">
<stop offset="0.1125" stop-color="#FF8A1E"/>
<stop offset="0.8625" stop-color="#FFF9D8"/>
</linearGradient>
</defs>
</svg>
