<svg width="100" height="100" viewBox="0 0 100 100" fill="none" xmlns="http://www.w3.org/2000/svg">
<path d="M35.9204 54.759C32.6507 54.759 30 57.0861 30 59.9568C30 62.8274 32.6507 65.1545 35.9204 65.1545H69.1533C69.6209 65.1545 70 64.8216 70 64.4112V55.5023C70 55.0919 69.6209 54.759 69.1533 54.759H35.9204ZM35.8876 61.6966C34.7929 61.6966 33.9058 60.9178 33.9058 59.9568C33.9058 58.9957 34.7929 58.2169 35.8876 58.2169C36.9822 58.2169 37.8693 58.9957 37.8693 59.9568C37.8693 60.9178 36.9822 61.6966 35.8876 61.6966Z" fill="url(#paint0_linear_1_125)"/>
<path d="M65.8271 53.448L68.5431 52.3359C68.9671 52.1623 69.1502 51.7202 68.9524 51.348L64.664 43.2738C64.4662 42.9015 63.9626 42.7408 63.5386 42.9144L37.8088 53.448H65.8271Z" fill="url(#paint1_linear_1_125)"/>
<path d="M59.8946 42.9598L61.8177 40.9479C62.1182 40.6334 62.0715 40.1644 61.7133 39.9007L53.9395 34.1738C53.5813 33.9101 53.047 33.951 52.7466 34.2655L34.5017 53.3552L59.8946 42.9598Z" fill="url(#paint2_linear_1_125)"/>
<path d="M7.19873 25.2887L50 0.57735L92.8013 25.2887V74.7113L50 99.4226L7.19873 74.7113V25.2887Z" stroke="url(#paint3_linear_1_125)"/>
<defs>
<linearGradient id="paint0_linear_1_125" x1="37.85" y1="59.9567" x2="80.55" y2="59.9567" gradientUnits="userSpaceOnUse">
<stop offset="0.1125" stop-color="#FF8A1E"/>
<stop offset="0.8625" stop-color="#FFF9D8"/>
</linearGradient>
<linearGradient id="paint1_linear_1_125" x1="43.9364" y1="48.1462" x2="77.2672" y2="48.1462" gradientUnits="userSpaceOnUse">
<stop offset="0.1125" stop-color="#FF8A1E"/>
<stop offset="0.8625" stop-color="#FFF9D8"/>
</linearGradient>
<linearGradient id="paint2_linear_1_125" x1="39.9013" y1="43.6776" x2="69.2726" y2="43.6776" gradientUnits="userSpaceOnUse">
<stop offset="0.1125" stop-color="#FF8A1E"/>
<stop offset="0.8625" stop-color="#FFF9D8"/>
</linearGradient>
<linearGradient id="paint3_linear_1_125" x1="19.625" y1="50" x2="126.375" y2="50" gradientUnits="userSpaceOnUse">
<stop offset="0.1125" stop-color="#FF8A1E"/>
<stop offset="0.8625" stop-color="#FFF9D8"/>
</linearGradient>
</defs>
</svg>
