<svg width="100" height="100" viewBox="0 0 100 100" fill="none" xmlns="http://www.w3.org/2000/svg">
<path d="M54.9483 46.0844L55 46.3649C55 46.6484 54.84 46.9215 54.56 47.0934C53.6633 47.6397 53.7817 47.5017 53.4433 48.3932C53.3033 48.7648 52.8933 49.0159 52.435 49.0159H52.4317C51.325 49.013 51.5167 48.9601 50.6267 49.5124C50.44 49.6299 50.22 49.6871 50 49.6871C49.78 49.6871 49.56 49.6299 49.3733 49.5138C48.4833 48.9616 48.675 49.0145 47.5683 49.0174H47.565C47.1067 49.0174 46.6967 48.7663 46.5567 48.3947C46.2183 47.5032 46.335 47.6412 45.4417 47.0949C45.16 46.9215 45 46.6484 45 46.3649L45.0517 46.0859C45.3967 45.1987 45.3983 45.3691 45.0517 44.4791L45 44.1986C45 43.9151 45.16 43.6419 45.4417 43.4686C46.335 42.9222 46.2167 43.0618 46.5567 42.1688C46.6967 41.7972 47.1067 41.5461 47.565 41.5461H47.5683C48.6717 41.549 48.475 41.6063 49.3733 41.0496C49.56 40.9321 49.78 40.8749 50 40.8749C50.22 40.8749 50.44 40.9321 50.6267 41.0482C51.5167 41.6004 51.325 41.5475 52.4317 41.5446H52.435C52.8933 41.5446 53.3033 41.7957 53.4433 42.1673C53.7817 43.0588 53.6633 42.9208 54.56 43.4671C54.84 43.6404 55 43.9136 55 44.1971L54.9483 44.4776C54.6033 45.3647 54.6017 45.1943 54.9483 46.0844V46.0844ZM52.5 44.3249L51.725 43.6434L49.375 45.7671L48.275 44.8463L47.5 45.5277L49.375 47.1301L52.5 44.3249V44.3249ZM60 51.1559H40V52.6246H60V51.1559ZM58.3333 54.0933H41.6667V55.562H58.3333V54.0933ZM60 57.0307H40V58.4994H60V57.0307ZM61.6667 35H30V64.3743H70V35H61.6667ZM66.6667 57.6505C64.7483 58.3907 63.21 59.7464 62.37 61.4368H37.63C36.79 59.7464 35.2517 58.3907 33.3333 57.6505V41.7238C35.2517 40.9835 36.79 39.6279 37.63 37.9374H62.37C63.21 39.6279 64.7483 40.9835 66.6667 41.7238V57.6505Z" fill="url(#paint0_linear_1_135)"/>
<path d="M7.19873 25.2887L50 0.57735L92.8013 25.2887V74.7113L50 99.4226L7.19873 74.7113V25.2887Z" stroke="url(#paint1_linear_1_135)"/>
<defs>
<linearGradient id="paint0_linear_1_135" x1="37.85" y1="49.6871" x2="80.55" y2="49.6871" gradientUnits="userSpaceOnUse">
<stop offset="0.1125" stop-color="#FF8A1E"/>
<stop offset="0.8625" stop-color="#FFF9D8"/>
</linearGradient>
<linearGradient id="paint1_linear_1_135" x1="19.625" y1="50" x2="126.375" y2="50" gradientUnits="userSpaceOnUse">
<stop offset="0.1125" stop-color="#FF8A1E"/>
<stop offset="0.8625" stop-color="#FFF9D8"/>
</linearGradient>
</defs>
</svg>
