<svg width="100" height="100" viewBox="0 0 100 100" fill="none" xmlns="http://www.w3.org/2000/svg">
<g id="icon">
<path id="Polygon 6" d="M7.19873 25.2887L50 0.57735L92.8013 25.2887V74.7113L50 99.4226L7.19873 74.7113V25.2887Z" stroke="url(#paint0_linear_1_68)"/>
<g id="worker">
<path id="Vector" d="M38.125 68.125V66.8207C38.125 61.673 43.4418 57.5 50 57.5C56.5582 57.5 61.875 61.673 61.875 66.8207V68.125H38.125Z" fill="url(#paint1_linear_1_68)"/>
<path id="Vector_2" d="M62.1875 68.4375H37.8125V66.8207C37.8125 64.2332 39.0902 61.8051 41.4102 59.9848C43.7078 58.1809 46.7578 57.1875 50 57.1875C53.2422 57.1875 56.2922 58.1809 58.5898 59.984C60.9098 61.8051 62.1875 64.2332 62.1875 66.8199V68.4375ZM38.4375 67.8125H61.5625V66.8207C61.5625 61.8535 56.3754 57.8125 50 57.8125C43.6246 57.8125 38.4375 61.8535 38.4375 66.8207V67.8125Z" fill="#222222"/>
<path id="Vector_3" d="M51.875 54.375H48.125V57.8906C48.125 57.8906 48.125 60 50 60C51.875 60 51.875 57.8906 51.875 57.8906V54.375Z" fill="url(#paint2_linear_1_68)"/>
<path id="Vector_4" d="M50 60.3125C48.8637 60.3125 48.3254 59.6379 48.0738 59.0723C47.9129 58.6984 47.8242 58.2975 47.8125 57.8906V54.0625H52.1875V57.8906C52.1758 58.2975 52.0871 58.6984 51.9262 59.0723C51.6746 59.6379 51.1363 60.3125 50 60.3125ZM48.4375 54.6875V57.8906C48.4375 57.9633 48.4645 59.6875 50 59.6875C50.652 59.6875 51.0938 59.4031 51.3551 58.8184C51.4801 58.5243 51.5504 58.2099 51.5625 57.8906V54.6875H48.4375Z" fill="#222222"/>
<path id="Vector_5" d="M38.8503 46.0863C38.8503 46.6886 39.0896 47.2663 39.5155 47.6922C39.9414 48.1181 40.5191 48.3574 41.1214 48.3574C41.7238 48.3574 42.3014 48.1181 42.7273 47.6922C43.1533 47.2663 43.3925 46.6886 43.3925 46.0863C43.3925 45.4839 43.1533 44.9063 42.7273 44.4804C42.3014 44.0545 41.7238 43.8152 41.1214 43.8152C40.5191 43.8152 39.9414 44.0545 39.5155 44.4804C39.0896 44.9063 38.8503 45.4839 38.8503 46.0863V46.0863Z" fill="url(#paint3_linear_1_68)"/>
<path id="Vector_6" d="M41.1216 48.6719C40.6105 48.6719 40.1109 48.5203 39.686 48.2364C39.261 47.9524 38.9298 47.5488 38.7343 47.0766C38.5387 46.6045 38.4875 46.0849 38.5873 45.5836C38.687 45.0824 38.9332 44.622 39.2946 44.2606C39.656 43.8992 40.1164 43.6532 40.6177 43.5535C41.119 43.4539 41.6385 43.5051 42.1107 43.7007C42.5829 43.8963 42.9864 44.2276 43.2703 44.6526C43.5542 45.0776 43.7056 45.5772 43.7056 46.0883C43.7048 46.7733 43.4324 47.4301 42.9479 47.9145C42.4635 48.3989 41.8066 48.6713 41.1216 48.6719ZM41.1216 44.1293C40.7341 44.1293 40.3554 44.2442 40.0332 44.4594C39.7111 44.6747 39.46 44.9807 39.3117 45.3386C39.1634 45.6966 39.1247 46.0905 39.2002 46.4705C39.2758 46.8505 39.4624 47.1995 39.7364 47.4735C40.0103 47.7475 40.3594 47.934 40.7394 48.0096C41.1194 48.0852 41.5133 48.0464 41.8713 47.8981C42.2292 47.7499 42.5352 47.4988 42.7504 47.1766C42.9657 46.8545 43.0806 46.4757 43.0806 46.0883C43.0805 45.5686 42.8741 45.0702 42.5068 44.7025C42.1395 44.3348 41.6413 44.128 41.1216 44.1273V44.1293Z" fill="#222222"/>
<path id="Vector_7" d="M56.6074 46.0863C56.6074 46.6886 56.8467 47.2663 57.2726 47.6922C57.6985 48.1181 58.2762 48.3574 58.8785 48.3574C59.4808 48.3574 60.0585 48.1181 60.4844 47.6922C60.9103 47.2663 61.1496 46.6886 61.1496 46.0863C61.1496 45.4839 60.9103 44.9063 60.4844 44.4804C60.0585 44.0545 59.4808 43.8152 58.8785 43.8152C58.2762 43.8152 57.6985 44.0545 57.2726 44.4804C56.8467 44.9063 56.6074 45.4839 56.6074 46.0863V46.0863Z" fill="url(#paint4_linear_1_68)"/>
<path id="Vector_8" d="M58.8786 48.6719C58.3675 48.672 57.8678 48.5205 57.4428 48.2366C57.0178 47.9527 56.6866 47.5491 56.491 47.0769C56.2953 46.6047 56.2441 46.0852 56.3438 45.5839C56.4435 45.0826 56.6896 44.6221 57.051 44.2607C57.4124 43.8993 57.8729 43.6532 58.3742 43.5535C58.8754 43.4538 59.395 43.5051 59.8672 43.7007C60.3394 43.8963 60.7429 44.2276 61.0268 44.6525C61.3107 45.0775 61.4622 45.5772 61.4622 46.0883C61.4613 46.7732 61.1889 47.4299 60.7045 47.9142C60.2202 48.3986 59.5635 48.671 58.8786 48.6719ZM58.8786 44.1293C58.4911 44.1292 58.1123 44.244 57.7901 44.4593C57.4679 44.6745 57.2168 44.9804 57.0684 45.3383C56.9201 45.6963 56.8812 46.0902 56.9568 46.4702C57.0323 46.8503 57.2189 47.1993 57.4928 47.4734C57.7668 47.7474 58.1158 47.934 58.4959 48.0096C58.8759 48.0852 59.2698 48.0464 59.6278 47.8982C59.9857 47.7499 60.2917 47.4988 60.507 47.1767C60.7223 46.8545 60.8372 46.4757 60.8372 46.0883C60.8371 45.5686 60.6307 45.0703 60.2635 44.7026C59.8963 44.335 59.3982 44.1281 58.8786 44.1273V44.1293Z" fill="#222222"/>
<path id="Vector_9" d="M59.052 42.2098L59.0848 46.5727C59.0848 51.9172 55.0176 56.25 50 56.25C44.9825 56.25 40.9153 51.9172 40.9153 46.5727L40.9481 42.2098C40.9481 42.2098 42.5 33.75 50 33.75C57.5 33.75 59.052 42.2098 59.052 42.2098Z" fill="url(#paint5_linear_1_68)"/>
<path id="Vector_10" d="M50.0001 56.5625C47.4864 56.5625 45.1239 55.5207 43.3481 53.6293C41.5723 51.7379 40.6028 49.2375 40.6028 46.5727L40.636 42.1801L40.6407 42.1535C40.6571 42.0648 41.0551 39.9551 42.3985 37.8141C43.1918 36.548 44.1516 35.5375 45.25 34.8109C46.6286 33.8996 48.227 33.4375 50.0001 33.4375C51.7731 33.4375 53.3715 33.8996 54.7508 34.8109C55.8501 35.5375 56.8098 36.548 57.6024 37.8141C58.9442 39.9551 59.3422 42.0648 59.3602 42.1535L59.3649 42.1801L59.3981 46.5703C59.3981 49.2375 58.4215 51.7434 56.6528 53.6293C54.884 55.5152 52.5137 56.5625 50.0001 56.5625ZM41.2606 42.2414L41.2278 46.575C41.2278 51.7363 45.1629 55.9375 50.0001 55.9375C54.8372 55.9375 58.7723 51.7363 58.7723 46.5727L58.7395 42.2414C58.6907 41.9988 58.2708 40.0488 57.0637 38.1297C55.3661 35.4297 52.9895 34.0625 50.0001 34.0625C47.0106 34.0625 44.634 35.4297 42.9364 38.1297C41.7293 40.0488 41.3094 41.9988 41.2606 42.2414Z" fill="#222222"/>
<path id="Vector_11" d="M41.741 48.3575C41.741 48.5765 41.8932 48.7866 42.1643 48.9414C42.4353 49.0963 42.803 49.1833 43.1863 49.1833C43.5696 49.1833 43.9372 49.0963 44.2083 48.9414C44.4793 48.7866 44.6316 48.5765 44.6316 48.3575C44.6316 48.1385 44.4793 47.9285 44.2083 47.7736C43.9372 47.6187 43.5696 47.5317 43.1863 47.5317C42.803 47.5317 42.4353 47.6187 42.1643 47.7736C41.8932 47.9285 41.741 48.1385 41.741 48.3575V48.3575Z" fill="url(#paint6_linear_1_68)"/>
<path id="Vector_12" d="M55.3684 48.3575C55.3684 48.5765 55.5207 48.7866 55.7917 48.9414C56.0628 49.0963 56.4304 49.1833 56.8137 49.1833C57.197 49.1833 57.5647 49.0963 57.8357 48.9414C58.1068 48.7866 58.259 48.5765 58.259 48.3575C58.259 48.1385 58.1068 47.9285 57.8357 47.7736C57.5647 47.6187 57.197 47.5317 56.8137 47.5317C56.4304 47.5317 56.0628 47.6187 55.7917 47.7736C55.5207 47.9285 55.3684 48.1385 55.3684 48.3575V48.3575Z" fill="url(#paint7_linear_1_68)"/>
<path id="Vector_13" d="M56.6071 44.7878H55.9595C55.8447 44.6289 55.6939 44.4994 55.5193 44.4102C55.3448 44.321 55.1516 44.2744 54.9556 44.2744C54.7595 44.2744 54.5663 44.321 54.3918 44.4102C54.2173 44.4994 54.0664 44.6289 53.9517 44.7878H53.3036C53.2207 44.7878 53.1412 44.8207 53.0826 44.8793C53.024 44.9379 52.9911 45.0174 52.9911 45.1003C52.9911 45.1832 53.024 45.2626 53.0826 45.3212C53.1412 45.3798 53.2207 45.4128 53.3036 45.4128H53.7212C53.7185 45.446 53.7165 45.4796 53.7165 45.5132C53.7136 45.6777 53.7435 45.8412 53.8044 45.994C53.8654 46.1469 53.9561 46.2861 54.0715 46.4035C54.1868 46.5209 54.3244 46.6141 54.4761 46.6778C54.6279 46.7414 54.7908 46.7742 54.9554 46.7742C55.1199 46.7742 55.2829 46.7414 55.4346 46.6778C55.5864 46.6141 55.7239 46.5209 55.8393 46.4035C55.9546 46.2861 56.0454 46.1469 56.1063 45.994C56.1673 45.8412 56.1972 45.6777 56.1942 45.5132C56.1942 45.4796 56.1942 45.446 56.1899 45.4128H56.6071C56.69 45.4128 56.7695 45.3798 56.8281 45.3212C56.8867 45.2626 56.9196 45.1832 56.9196 45.1003C56.9196 45.0174 56.8867 44.9379 56.8281 44.8793C56.7695 44.8207 56.69 44.7878 56.6071 44.7878V44.7878ZM46.6966 44.7878H46.0485C45.9338 44.6289 45.7829 44.4994 45.6084 44.4102C45.4339 44.321 45.2407 44.2744 45.0446 44.2744C44.8486 44.2744 44.6554 44.321 44.4809 44.4102C44.3063 44.4994 44.1555 44.6289 44.0407 44.7878H43.3931C43.3102 44.7878 43.2307 44.8207 43.1721 44.8793C43.1135 44.9379 43.0806 45.0174 43.0806 45.1003C43.0806 45.1832 43.1135 45.2626 43.1721 45.3212C43.2307 45.3798 43.3102 45.4128 43.3931 45.4128H43.8103C43.8075 45.446 43.806 45.4796 43.806 45.5132C43.803 45.6777 43.8329 45.8412 43.8939 45.994C43.9548 46.1469 44.0456 46.2861 44.1609 46.4035C44.2763 46.5209 44.4138 46.6141 44.5656 46.6778C44.7173 46.7414 44.8803 46.7742 45.0448 46.7742C45.2094 46.7742 45.3723 46.7414 45.5241 46.6778C45.6758 46.6141 45.8134 46.5209 45.9287 46.4035C46.044 46.2861 46.1348 46.1469 46.1958 45.994C46.2567 45.8412 46.2866 45.6777 46.2837 45.5132C46.2837 45.4796 46.2817 45.446 46.279 45.4128H46.6966C46.7795 45.4128 46.8589 45.3798 46.9176 45.3212C46.9762 45.2626 47.0091 45.1832 47.0091 45.1003C47.0091 45.0174 46.9762 44.9379 46.9176 44.8793C46.8589 44.8207 46.7795 44.7878 46.6966 44.7878V44.7878Z" fill="#222222"/>
<path id="Vector_14" d="M46.6965 52.5337C46.6965 52.5337 47.7977 52.9466 50 52.9466C52.2024 52.9466 53.3036 52.5337 53.3036 52.5337" fill="url(#paint8_linear_1_68)"/>
<path id="Vector_15" d="M49.9999 53.259C47.7667 53.259 46.6339 52.8437 46.5866 52.8261C46.5089 52.7971 46.446 52.7385 46.4115 52.663C46.3771 52.5875 46.374 52.5015 46.4031 52.4238C46.4321 52.3461 46.4907 52.2831 46.5662 52.2487C46.6417 52.2142 46.7277 52.2112 46.8054 52.2402C46.8159 52.2441 47.8941 52.6336 49.9999 52.6336C52.121 52.6336 53.1831 52.2429 53.1937 52.2406C53.2322 52.2262 53.2731 52.2195 53.3141 52.2209C53.3552 52.2223 53.3956 52.2318 53.433 52.2488C53.4704 52.2658 53.5041 52.29 53.5321 52.32C53.5601 52.3501 53.582 52.3853 53.5964 52.4238C53.6108 52.4623 53.6175 52.5032 53.6161 52.5443C53.6147 52.5853 53.6052 52.6257 53.5882 52.6631C53.5712 52.7005 53.547 52.7342 53.517 52.7622C53.4869 52.7903 53.4517 52.8121 53.4132 52.8265C53.3659 52.8437 52.2331 53.259 49.9999 53.259V53.259Z" fill="#222222"/>
<path id="Vector_16" d="M47.5 61.875L45.625 58.125L47.5 57.5L50 60L47.5 61.875Z" fill="url(#paint9_linear_1_68)"/>
<path id="Vector_17" d="M47.5 62.1876C47.4758 62.1876 47.4517 62.1848 47.4281 62.1794C47.3835 62.1689 47.3418 62.1487 47.3059 62.1203C47.27 62.0919 47.2407 62.0559 47.2203 62.0149L45.3453 58.2649C45.3252 58.2249 45.314 58.181 45.3125 58.1362C45.3109 58.0914 45.3189 58.0468 45.3361 58.0055C45.3532 57.9641 45.3791 57.9269 45.4119 57.8964C45.4447 57.8658 45.4836 57.8427 45.5261 57.8286L47.4011 57.2036C47.4562 57.1852 47.5153 57.1825 47.5718 57.1958C47.6283 57.2091 47.68 57.2379 47.7211 57.279L50.2211 59.779C50.2527 59.8107 50.2772 59.8488 50.2929 59.8907C50.3085 59.9327 50.315 59.9775 50.3118 60.0222C50.3086 60.0669 50.2959 60.1103 50.2744 60.1497C50.253 60.189 50.2233 60.2232 50.1875 60.2501L47.6875 62.1251C47.6334 62.1657 47.5676 62.1876 47.5 62.1876V62.1876ZM46.0656 58.3075L47.6121 61.4005L49.5242 59.9661L47.4148 57.8567L46.0656 58.3075Z" fill="#222222"/>
<path id="Vector_18" d="M52.5 61.875L54.375 58.125L52.5 57.5L50 60L52.5 61.875Z" fill="url(#paint10_linear_1_68)"/>
<path id="Vector_19" d="M52.4999 62.1876C52.4323 62.1876 52.3665 62.1657 52.3124 62.1251L49.8124 60.2501C49.7766 60.2232 49.7469 60.189 49.7254 60.1497C49.704 60.1103 49.6912 60.0669 49.688 60.0222C49.6849 59.9775 49.6913 59.9327 49.707 59.8907C49.7226 59.8488 49.7471 59.8107 49.7788 59.779L52.2788 57.279C52.3199 57.2379 52.3715 57.2091 52.4281 57.1958C52.4846 57.1825 52.5437 57.1852 52.5987 57.2036L54.4737 57.8286C54.5162 57.8427 54.5552 57.8658 54.588 57.8964C54.6208 57.9269 54.6466 57.9641 54.6638 58.0055C54.6809 58.0468 54.689 58.0914 54.6874 58.1362C54.6858 58.181 54.6746 58.2249 54.6546 58.2649L52.7796 62.0149C52.7591 62.0559 52.7299 62.0919 52.694 62.1203C52.6581 62.1487 52.6163 62.1689 52.5718 62.1794C52.5482 62.1848 52.5241 62.1876 52.4999 62.1876V62.1876ZM50.4757 59.9661L52.3897 61.4005L53.9362 58.3075L52.5862 57.8575L50.4757 59.9661Z" fill="#222222"/>
<path id="Vector_20" d="M58.125 68.125H41.875V59.375L44.375 58.125V65.625H55.625V58.125L58.125 59.375V68.125Z" fill="url(#paint11_linear_1_68)"/>
<path id="Vector_21" d="M58.125 68.4375H41.875C41.7921 68.4375 41.7126 68.4046 41.654 68.346C41.5954 68.2873 41.5625 68.2079 41.5625 68.125V59.375C41.5625 59.3169 41.5786 59.26 41.6091 59.2106C41.6396 59.1612 41.6832 59.1213 41.7352 59.0953L44.2352 57.8453C44.2828 57.8214 44.3358 57.8102 44.389 57.8126C44.4423 57.815 44.494 57.8309 44.5393 57.859C44.5847 57.887 44.6221 57.9261 44.648 57.9727C44.6739 58.0193 44.6875 58.0717 44.6875 58.125V65.3125H55.3125V58.125C55.3125 58.0717 55.3261 58.0193 55.352 57.9727C55.3779 57.9261 55.4153 57.887 55.4607 57.859C55.506 57.8309 55.5577 57.815 55.611 57.8126C55.6642 57.8102 55.7172 57.8214 55.7648 57.8453L58.2648 59.0953C58.3168 59.1213 58.3604 59.1612 58.3909 59.2106C58.4214 59.26 58.4375 59.3169 58.4375 59.375V68.125C58.4375 68.2079 58.4046 68.2873 58.346 68.346C58.2874 68.4046 58.2079 68.4375 58.125 68.4375ZM42.1875 67.8125H57.8125V59.5679L55.9375 58.6304V65.625C55.9375 65.7079 55.9046 65.7873 55.846 65.846C55.7874 65.9046 55.7079 65.9375 55.625 65.9375H44.375C44.2921 65.9375 44.2126 65.9046 44.154 65.846C44.0954 65.7873 44.0625 65.7079 44.0625 65.625V58.6304L42.1875 59.5679V67.8125Z" fill="#222222"/>
<path id="Vector_22" d="M59.4355 42.0094C59.4355 39.4656 40.5176 39.4656 40.5176 42.0094C40.5176 36.7855 44.7527 32.5508 49.9766 32.5508C55.2004 32.5508 59.4355 36.7855 59.4355 42.0094Z" fill="url(#paint12_linear_1_68)"/>
<path id="Vector_23" d="M59.748 42.0093H59.123C59.123 41.7144 58.4164 41.2433 56.4246 40.8862C54.7266 40.5815 52.4367 40.414 49.9766 40.414C47.5164 40.414 45.2266 40.5815 43.5289 40.8862C41.5367 41.2433 40.8301 41.7144 40.8301 42.0093H40.2051C40.2051 39.4177 41.2346 36.9323 43.0671 35.0998C44.8996 33.2673 47.385 32.2378 49.9766 32.2378C52.5681 32.2378 55.0535 33.2673 56.886 35.0998C58.7186 36.9323 59.748 39.4177 59.748 42.0093V42.0093ZM49.9766 32.8632C45.2531 32.8632 41.3543 36.462 40.8789 41.062C41.4078 40.7421 42.2512 40.48 43.418 40.271C45.1512 39.9585 47.4805 39.789 49.9762 39.789C52.4719 39.789 54.8016 39.9608 56.5348 40.271C57.702 40.48 58.5453 40.7421 59.0738 41.062C58.5988 36.462 54.7 32.8632 49.9766 32.8632Z" fill="#222222"/>
<path id="Vector_24" d="M47.2742 40V34.5777C47.2742 33.0859 48.0781 31.875 49.9765 31.875C51.875 31.875 52.6792 33.0859 52.6792 34.5777V40C52.6792 41.1473 47.2742 41.1473 47.2742 40V40Z" fill="url(#paint13_linear_1_68)"/>
<path id="Vector_25" d="M49.9766 41.1719C49.4731 41.1719 46.9618 41.1152 46.9618 40V34.5773C46.9618 33.716 47.2102 32.9828 47.6809 32.4578C48.2059 31.8723 48.9997 31.5625 49.9766 31.5625C50.9536 31.5625 51.7473 31.8723 52.2727 32.4578C52.7415 32.9828 52.9918 33.716 52.9918 34.5773V40C52.9918 41.1164 50.4801 41.1719 49.9766 41.1719V41.1719ZM49.9766 32.1875C47.8196 32.1875 47.5868 33.859 47.5868 34.5773V40C47.5868 40.0441 47.7 40.202 48.2036 40.3449C48.6602 40.4738 49.3063 40.548 49.9766 40.548C50.6469 40.548 51.293 40.4738 51.7497 40.3449C52.2532 40.202 52.3668 40.0441 52.3668 40V34.5773C52.3668 33.859 52.1336 32.1875 49.9766 32.1875V32.1875ZM43.8958 40.3125C43.8129 40.3125 43.7334 40.2796 43.6748 40.221C43.6162 40.1624 43.5833 40.0829 43.5833 40V35C43.5833 34.9171 43.6162 34.8376 43.6748 34.779C43.7334 34.7204 43.8129 34.6875 43.8958 34.6875C43.9786 34.6875 44.0581 34.7204 44.1167 34.779C44.1753 34.8376 44.2083 34.9171 44.2083 35V40C44.2083 40.0829 44.1753 40.1624 44.1167 40.221C44.0581 40.2796 43.9786 40.3125 43.8958 40.3125ZM56.0094 40.3125C55.9265 40.3125 55.8471 40.2796 55.7885 40.221C55.7298 40.1624 55.6969 40.0829 55.6969 40V35C55.6969 34.9171 55.7298 34.8376 55.7885 34.779C55.8471 34.7204 55.9265 34.6875 56.0094 34.6875C56.0923 34.6875 56.1718 34.7204 56.2304 34.779C56.289 34.8376 56.3219 34.9171 56.3219 35V40C56.3219 40.0829 56.289 40.1624 56.2304 40.221C56.1718 40.2796 56.0923 40.3125 56.0094 40.3125Z" fill="#222222"/>
<path id="Vector_26" d="M40.6969 43.75C42.5078 42.8414 45.9949 42.2266 50 42.2266C54.0051 42.2266 57.4922 42.8418 59.3031 43.75C60.1449 43.3273 60.625 42.8414 60.625 42.3246C60.625 40.6957 55.868 39.375 50 39.375C44.132 39.375 39.375 40.6957 39.375 42.3246C39.375 42.8414 39.8551 43.3273 40.6969 43.75V43.75Z" fill="url(#paint14_linear_1_68)"/>
<path id="Vector_27" d="M59.3031 44.1016L59.1629 44.0313C57.3305 43.1098 53.8195 42.5391 50 42.5391C46.1805 42.5391 42.6695 43.1102 40.8371 44.0297L40.6969 44.1L40.557 44.0297C39.5652 43.5316 39.0625 42.9582 39.0625 42.3246C39.0625 40.2059 44.6977 39.0625 50 39.0625C55.3023 39.0625 60.9375 40.2059 60.9375 42.3246C60.9375 42.9582 60.4348 43.5316 59.443 44.0293L59.3031 44.1016ZM50 41.9141C53.8145 41.9141 57.3504 42.4816 59.2969 43.4008C59.9523 43.0492 60.3125 42.6691 60.3125 42.325C60.3125 41.7086 59.2348 41.0414 57.4293 40.5402C55.4492 39.9902 52.8125 39.6875 50 39.6875C47.1875 39.6875 44.5508 39.9902 42.5707 40.5398C40.7652 41.041 39.6875 41.7082 39.6875 42.3246C39.6875 42.6688 40.0461 43.0477 40.7031 43.4004C42.6496 42.4812 46.1855 41.9141 50 41.9141Z" fill="#222222"/>
<path id="Vector_28" d="M65.625 51.875V53.75L64.652 55.3125H62.8481L61.875 53.75V51.875C61.4378 52.2029 61.0941 52.6397 60.8784 53.1419C60.6627 53.644 60.5825 54.194 60.6458 54.7369C60.709 55.2797 60.9135 55.7965 61.2389 56.2356C61.5643 56.6748 61.9991 57.0209 62.5 57.2395V66.25H65V57.2395C65.501 57.0209 65.9358 56.6748 66.2612 56.2356C66.5866 55.7965 66.7911 55.2797 66.8543 54.7369C66.9176 54.194 66.8374 53.644 66.6217 53.1419C66.4059 52.6397 66.0623 52.2029 65.625 51.875Z" fill="url(#paint15_linear_1_68)"/>
<path id="Vector_29" d="M64.9999 66.5626H62.4999C62.4171 66.5626 62.3376 66.5296 62.279 66.471C62.2204 66.4124 62.1874 66.3329 62.1874 66.2501V57.4372C61.6676 57.172 61.2238 56.7788 60.8979 56.2946C60.572 55.8105 60.3747 55.2514 60.3247 54.6699C60.2746 54.0885 60.3734 53.5039 60.6118 52.9712C60.8501 52.4385 61.2202 51.9752 61.6871 51.625C61.7335 51.5901 61.7887 51.5688 61.8466 51.5635C61.9044 51.5583 61.9626 51.5692 62.0146 51.5952C62.0666 51.6212 62.1103 51.6611 62.1408 51.7105C62.1714 51.76 62.1875 51.8169 62.1874 51.875V53.6606L63.0214 55H64.4785L65.3124 53.6606V51.875C65.3124 51.8169 65.3285 51.76 65.3591 51.7105C65.3896 51.6611 65.4333 51.6212 65.4853 51.5952C65.5372 51.5692 65.5954 51.5583 65.6533 51.5635C65.7112 51.5688 65.7664 51.5901 65.8128 51.625C66.2797 51.9752 66.6498 52.4385 66.8881 52.9712C67.1265 53.5039 67.2253 54.0885 67.1752 54.6699C67.1251 55.2514 66.9279 55.8105 66.602 56.2946C66.2761 56.7788 65.8323 57.172 65.3124 57.4372V66.2501C65.3124 66.3329 65.2795 66.4124 65.2209 66.471C65.1623 66.5296 65.0828 66.5626 64.9999 66.5626ZM62.8124 65.9376H64.6874V57.2395C64.6875 57.1787 64.7052 57.1192 64.7385 57.0684C64.7718 57.0175 64.8192 56.9775 64.8749 56.9532C65.2717 56.7797 65.6232 56.517 65.9019 56.1855C66.1806 55.854 66.3791 55.4627 66.4819 55.042C66.5847 54.6213 66.589 54.1826 66.4946 53.7599C66.4002 53.3372 66.2095 52.9421 65.9374 52.6051V53.75C65.9374 53.8085 65.9211 53.8657 65.8902 53.9153L64.9175 55.4778C64.8894 55.5229 64.8503 55.5601 64.8038 55.5859C64.7573 55.6116 64.705 55.6251 64.6519 55.625H62.848C62.7949 55.625 62.7427 55.6115 62.6963 55.5858C62.6499 55.56 62.6108 55.5228 62.5828 55.4778L61.6097 53.9153C61.5788 53.8657 61.5624 53.8085 61.5624 53.75V52.6051C61.2904 52.9421 61.0997 53.3372 61.0053 53.7599C60.9109 54.1826 60.9152 54.6213 61.018 55.042C61.1208 55.4627 61.3193 55.854 61.598 56.1855C61.8767 56.517 62.2281 56.7797 62.6249 56.9532C62.6807 56.9775 62.7281 57.0175 62.7614 57.0684C62.7947 57.1192 62.8124 57.1787 62.8124 57.2395V65.9376Z" fill="#222222"/>
<path id="Vector_30" d="M61.25 60.625H67.5V62.5H61.25V60.625Z" fill="url(#paint16_linear_1_68)"/>
<path id="Vector_31" d="M67.8125 62.8125H60.9375V60.3125H67.8125V62.8125ZM61.5625 62.1875H67.1875V60.9375H61.5625V62.1875Z" fill="#222222"/>
<path id="Vector_32" d="M61.25 62.5H67.5V64.375H61.25V62.5Z" fill="url(#paint17_linear_1_68)"/>
<path id="Vector_33" d="M67.8125 64.6875H60.9375V62.1875H67.8125V64.6875ZM61.5625 64.0625H67.1875V62.8125H61.5625V64.0625Z" fill="#222222"/>
<path id="Vector_34" d="M61.25 64.375H67.5V66.25H61.25V64.375Z" fill="url(#paint18_linear_1_68)"/>
<path id="Vector_35" d="M67.8125 66.5625H60.9375V64.0625H67.8125V66.5625ZM61.5625 65.9375H67.1875V64.6875H61.5625V65.9375Z" fill="#222222"/>
<path id="Vector_36" d="M61.25 66.25H67.5V68.125H61.25V66.25Z" fill="url(#paint19_linear_1_68)"/>
<path id="Vector_37" d="M67.8125 68.4375H60.9375V65.9375H67.8125V68.4375ZM61.5625 67.8125H67.1875V66.5625H61.5625V67.8125Z" fill="#222222"/>
<path id="Vector_38" d="M63.75 60.625H67.5V68.125H63.75" fill="url(#paint20_linear_1_68)"/>
<path id="Vector_39" d="M67.8125 68.4375H63.75V67.8125H67.1875V60.9375H63.75V60.3125H67.8125V68.4375Z" fill="#222222"/>
<path id="Vector_40" d="M61.25 60.625V64.375H59.375V60.625H61.25Z" fill="url(#paint21_linear_1_68)"/>
<path id="Vector_41" d="M61.5625 64.6875H59.0625V60.3125H61.5625V64.6875ZM59.6875 64.0625H60.9375V60.9375H59.6875V64.0625ZM50 65.9375C49.9171 65.9375 49.8376 65.9046 49.779 65.846C49.7204 65.7874 49.6875 65.7079 49.6875 65.625V60.625C49.6875 60.5421 49.7204 60.4626 49.779 60.404C49.8376 60.3454 49.9171 60.3125 50 60.3125C50.0829 60.3125 50.1624 60.3454 50.221 60.404C50.2796 60.4626 50.3125 60.5421 50.3125 60.625V65.625C50.3125 65.7079 50.2796 65.7874 50.221 65.846C50.1624 65.9046 50.0829 65.9375 50 65.9375Z" fill="#222222"/>
</g>
</g>
<defs>
<linearGradient id="paint0_linear_1_68" x1="19.625" y1="50" x2="126.375" y2="50" gradientUnits="userSpaceOnUse">
<stop offset="0.1125" stop-color="#FF8A1E"/>
<stop offset="0.8625" stop-color="#FFF9D8"/>
</linearGradient>
<linearGradient id="paint1_linear_1_68" x1="42.7859" y1="62.8125" x2="68.1391" y2="62.8125" gradientUnits="userSpaceOnUse">
<stop offset="0.1125" stop-color="#FF8A1E"/>
<stop offset="0.8625" stop-color="#FFF9D8"/>
</linearGradient>
<linearGradient id="paint2_linear_1_68" x1="48.8609" y1="57.1875" x2="52.8641" y2="57.1875" gradientUnits="userSpaceOnUse">
<stop offset="0.1125" stop-color="#FF8A1E"/>
<stop offset="0.8625" stop-color="#FFF9D8"/>
</linearGradient>
<linearGradient id="paint3_linear_1_68" x1="39.7417" y1="46.0863" x2="44.5905" y2="46.0863" gradientUnits="userSpaceOnUse">
<stop offset="0.1125" stop-color="#FF8A1E"/>
<stop offset="0.8625" stop-color="#FFF9D8"/>
</linearGradient>
<linearGradient id="paint4_linear_1_68" x1="57.4988" y1="46.0863" x2="62.3476" y2="46.0863" gradientUnits="userSpaceOnUse">
<stop offset="0.1125" stop-color="#FF8A1E"/>
<stop offset="0.8625" stop-color="#FFF9D8"/>
</linearGradient>
<linearGradient id="paint5_linear_1_68" x1="44.4811" y1="45" x2="63.877" y2="45" gradientUnits="userSpaceOnUse">
<stop offset="0.1125" stop-color="#FF8A1E"/>
<stop offset="0.8625" stop-color="#FFF9D8"/>
</linearGradient>
<linearGradient id="paint6_linear_1_68" x1="42.3083" y1="48.3575" x2="45.394" y2="48.3575" gradientUnits="userSpaceOnUse">
<stop offset="0.1125" stop-color="#FF8A1E"/>
<stop offset="0.8625" stop-color="#FFF9D8"/>
</linearGradient>
<linearGradient id="paint7_linear_1_68" x1="55.9357" y1="48.3575" x2="59.0214" y2="48.3575" gradientUnits="userSpaceOnUse">
<stop offset="0.1125" stop-color="#FF8A1E"/>
<stop offset="0.8625" stop-color="#FFF9D8"/>
</linearGradient>
<linearGradient id="paint8_linear_1_68" x1="47.9932" y1="52.7401" x2="55.0462" y2="52.7401" gradientUnits="userSpaceOnUse">
<stop offset="0.1125" stop-color="#FF8A1E"/>
<stop offset="0.8625" stop-color="#FFF9D8"/>
</linearGradient>
<linearGradient id="paint9_linear_1_68" x1="46.4836" y1="59.6875" x2="51.1539" y2="59.6875" gradientUnits="userSpaceOnUse">
<stop offset="0.1125" stop-color="#FF8A1E"/>
<stop offset="0.8625" stop-color="#FFF9D8"/>
</linearGradient>
<linearGradient id="paint10_linear_1_68" x1="50.8586" y1="59.6875" x2="55.5289" y2="59.6875" gradientUnits="userSpaceOnUse">
<stop offset="0.1125" stop-color="#FF8A1E"/>
<stop offset="0.8625" stop-color="#FFF9D8"/>
</linearGradient>
<linearGradient id="paint11_linear_1_68" x1="45.0641" y1="63.125" x2="62.4109" y2="63.125" gradientUnits="userSpaceOnUse">
<stop offset="0.1125" stop-color="#FF8A1E"/>
<stop offset="0.8625" stop-color="#FFF9D8"/>
</linearGradient>
<linearGradient id="paint12_linear_1_68" x1="44.2302" y1="37.2801" x2="64.4252" y2="37.2801" gradientUnits="userSpaceOnUse">
<stop offset="0.1125" stop-color="#FF8A1E"/>
<stop offset="0.8625" stop-color="#FFF9D8"/>
</linearGradient>
<linearGradient id="paint13_linear_1_68" x1="48.3349" y1="36.3677" x2="54.1048" y2="36.3677" gradientUnits="userSpaceOnUse">
<stop offset="0.1125" stop-color="#FF8A1E"/>
<stop offset="0.8625" stop-color="#FFF9D8"/>
</linearGradient>
<linearGradient id="paint14_linear_1_68" x1="43.5453" y1="41.5625" x2="66.2297" y2="41.5625" gradientUnits="userSpaceOnUse">
<stop offset="0.1125" stop-color="#FF8A1E"/>
<stop offset="0.8625" stop-color="#FFF9D8"/>
</linearGradient>
<linearGradient id="paint15_linear_1_68" x1="61.8514" y1="59.0625" x2="68.5239" y2="59.0625" gradientUnits="userSpaceOnUse">
<stop offset="0.1125" stop-color="#FF8A1E"/>
<stop offset="0.8625" stop-color="#FFF9D8"/>
</linearGradient>
<linearGradient id="paint16_linear_1_68" x1="62.4766" y1="61.5625" x2="69.1484" y2="61.5625" gradientUnits="userSpaceOnUse">
<stop offset="0.1125" stop-color="#FF8A1E"/>
<stop offset="0.8625" stop-color="#FFF9D8"/>
</linearGradient>
<linearGradient id="paint17_linear_1_68" x1="62.4766" y1="63.4375" x2="69.1484" y2="63.4375" gradientUnits="userSpaceOnUse">
<stop offset="0.1125" stop-color="#FF8A1E"/>
<stop offset="0.8625" stop-color="#FFF9D8"/>
</linearGradient>
<linearGradient id="paint18_linear_1_68" x1="62.4766" y1="65.3125" x2="69.1484" y2="65.3125" gradientUnits="userSpaceOnUse">
<stop offset="0.1125" stop-color="#FF8A1E"/>
<stop offset="0.8625" stop-color="#FFF9D8"/>
</linearGradient>
<linearGradient id="paint19_linear_1_68" x1="62.4766" y1="67.1875" x2="69.1484" y2="67.1875" gradientUnits="userSpaceOnUse">
<stop offset="0.1125" stop-color="#FF8A1E"/>
<stop offset="0.8625" stop-color="#FFF9D8"/>
</linearGradient>
<linearGradient id="paint20_linear_1_68" x1="64.4859" y1="64.375" x2="68.4891" y2="64.375" gradientUnits="userSpaceOnUse">
<stop offset="0.1125" stop-color="#FF8A1E"/>
<stop offset="0.8625" stop-color="#FFF9D8"/>
</linearGradient>
<linearGradient id="paint21_linear_1_68" x1="59.743" y1="62.5" x2="61.7445" y2="62.5" gradientUnits="userSpaceOnUse">
<stop offset="0.1125" stop-color="#FF8A1E"/>
<stop offset="0.8625" stop-color="#FFF9D8"/>
</linearGradient>
</defs>
</svg>
