<svg width="385" height="285" viewBox="0 0 385 285" fill="none" xmlns="http://www.w3.org/2000/svg">
<g filter="url(#filter0_d_1_478)">
<path d="M155.234 129.596L192.812 151.317V194.759L155.234 216.48L117.655 194.759V151.317L155.234 129.596Z" fill="url(#paint0_linear_1_478)"/>
<path d="M117.896 65.0764L155.475 86.7975V130.24L117.896 151.961L80.3173 130.24V86.7975L117.896 65.0764Z" fill="url(#paint1_linear_1_478)"/>
<path d="M266.902 64.8768L304.481 86.5979V130.04L266.902 151.761L229.324 130.04V86.5979L266.902 64.8768Z" fill="url(#paint2_linear_1_478)"/>
<path d="M229.737 129.496L267.316 151.217V194.66L229.737 216.381L192.158 194.66V151.217L229.737 129.496Z" fill="url(#paint3_linear_1_478)"/>
<path d="M80.7307 129.696L118.309 151.417V194.859L80.7307 216.58L43.1521 194.859V151.417L80.7307 129.696Z" fill="url(#paint4_linear_1_478)"/>
<path d="M80.5573 0.00012207L118.136 21.7212V65.1633L80.5573 86.8844L42.9787 65.1633V21.7212L80.5573 0.00012207Z" fill="url(#paint5_linear_1_478)"/>
<path d="M192.572 194.116L230.15 215.837V259.279L192.572 281L154.993 259.279V215.837L192.572 194.116Z" fill="url(#paint6_linear_1_478)"/>
<path d="M43.4671 64.8391L81.0457 86.5602V130.002L43.4671 151.723L5.8885 130.002V86.5602L43.4671 64.8391Z" fill="url(#paint7_linear_1_478)"/>
<path d="M43.392 64.6195L80.9706 86.3406V129.783L43.392 151.504L5.81343 129.783V86.3406L43.392 64.6195Z" fill="url(#paint8_linear_1_478)"/>
<path d="M304.518 129.428L342.097 151.149V194.591L304.518 216.312L266.939 194.591V151.149L304.518 129.428Z" fill="url(#paint9_linear_1_478)"/>
<path d="M341.608 64.734L379.187 86.4551V129.897L341.608 151.618L304.029 129.897V86.4551L341.608 64.734Z" fill="url(#paint10_linear_1_478)"/>
</g>
<defs>
<filter id="filter0_d_1_478" x="-2" y="0" width="389" height="285" filterUnits="userSpaceOnUse" color-interpolation-filters="sRGB">
<feFlood flood-opacity="0" result="BackgroundImageFix"/>
<feColorMatrix in="SourceAlpha" type="matrix" values="0 0 0 0 0 0 0 0 0 0 0 0 0 0 0 0 0 0 127 0" result="hardAlpha"/>
<feOffset dy="2"/>
<feGaussianBlur stdDeviation="1"/>
<feComposite in2="hardAlpha" operator="out"/>
<feColorMatrix type="matrix" values="0 0 0 0 1 0 0 0 0 0.541533 0 0 0 0 0.118333 0 0 0 1 0"/>
<feBlend mode="normal" in2="BackgroundImageFix" result="effect1_dropShadow_1_478"/>
<feBlend mode="normal" in="SourceGraphic" in2="effect1_dropShadow_1_478" result="shape"/>
</filter>
<linearGradient id="paint0_linear_1_478" x1="128.873" y1="173.038" x2="221.515" y2="173.038" gradientUnits="userSpaceOnUse">
<stop offset="0.1125" stop-color="#FF8A1E"/>
<stop offset="0.8625" stop-color="#FFF9D8"/>
</linearGradient>
<linearGradient id="paint1_linear_1_478" x1="91.5353" y1="108.519" x2="184.177" y2="108.519" gradientUnits="userSpaceOnUse">
<stop offset="0.1125" stop-color="#FF8A1E"/>
<stop offset="0.8625" stop-color="#FFF9D8"/>
</linearGradient>
<linearGradient id="paint2_linear_1_478" x1="240.542" y1="108.319" x2="333.184" y2="108.319" gradientUnits="userSpaceOnUse">
<stop offset="0.1125" stop-color="#FF8A1E"/>
<stop offset="0.8625" stop-color="#FFF9D8"/>
</linearGradient>
<linearGradient id="paint3_linear_1_478" x1="203.376" y1="172.938" x2="296.018" y2="172.938" gradientUnits="userSpaceOnUse">
<stop offset="0.1125" stop-color="#FF8A1E"/>
<stop offset="0.8625" stop-color="#FFF9D8"/>
</linearGradient>
<linearGradient id="paint4_linear_1_478" x1="54.37" y1="173.138" x2="147.012" y2="173.138" gradientUnits="userSpaceOnUse">
<stop offset="0.1125" stop-color="#FF8A1E"/>
<stop offset="0.8625" stop-color="#FFF9D8"/>
</linearGradient>
<linearGradient id="paint5_linear_1_478" x1="54.1967" y1="43.4422" x2="146.839" y2="43.4422" gradientUnits="userSpaceOnUse">
<stop offset="0.1125" stop-color="#FF8A1E"/>
<stop offset="0.8625" stop-color="#FFF9D8"/>
</linearGradient>
<linearGradient id="paint6_linear_1_478" x1="166.211" y1="237.558" x2="258.853" y2="237.558" gradientUnits="userSpaceOnUse">
<stop offset="0.1125" stop-color="#FF8A1E"/>
<stop offset="0.8625" stop-color="#FFF9D8"/>
</linearGradient>
<linearGradient id="paint7_linear_1_478" x1="17.1065" y1="108.281" x2="109.748" y2="108.281" gradientUnits="userSpaceOnUse">
<stop offset="0.1125" stop-color="#FF8A1E"/>
<stop offset="0.8625" stop-color="#FFF9D8"/>
</linearGradient>
<linearGradient id="paint8_linear_1_478" x1="17.0314" y1="108.062" x2="109.673" y2="108.062" gradientUnits="userSpaceOnUse">
<stop offset="0.1125" stop-color="#FF8A1E"/>
<stop offset="0.8625" stop-color="#FFF9D8"/>
</linearGradient>
<linearGradient id="paint9_linear_1_478" x1="278.157" y1="172.87" x2="370.799" y2="172.87" gradientUnits="userSpaceOnUse">
<stop offset="0.1125" stop-color="#FF8A1E"/>
<stop offset="0.8625" stop-color="#FFF9D8"/>
</linearGradient>
<linearGradient id="paint10_linear_1_478" x1="315.247" y1="108.176" x2="407.889" y2="108.176" gradientUnits="userSpaceOnUse">
<stop offset="0.1125" stop-color="#FF8A1E"/>
<stop offset="0.8625" stop-color="#FFF9D8"/>
</linearGradient>
</defs>
</svg>
