<svg width="126" height="106" viewBox="0 0 126 106" fill="none" xmlns="http://www.w3.org/2000/svg">
<g filter="url(#filter0_d_1_900)">
<path d="M139.043 91.5166L116.303 78.3872V52.1285L139.043 38.9991L161.784 52.1285V78.3872L139.043 91.5166Z" fill="url(#paint0_linear_1_900)"/>
<path d="M71.4671 130.636L48.7263 117.507L48.7263 91.2483L71.4671 78.1189L94.2078 91.2483V117.507L71.4671 130.636Z" fill="url(#paint1_linear_1_900)"/>
<path d="M93.9578 91.5769L71.217 78.4475V52.1888L93.9578 39.0594L116.699 52.1888V78.4475L93.9578 91.5769Z" fill="url(#paint2_linear_1_900)"/>
<path d="M116.448 52.5176L93.7075 39.3882V13.1294L116.448 5.34058e-05L139.189 13.1294V39.3882L116.448 52.5176Z" fill="url(#paint3_linear_1_900)"/>
<path d="M48.7039 91.6184L25.9631 78.489L25.9631 52.2303L48.7039 39.1009L71.4446 52.2303V78.489L48.7039 91.6184Z" fill="url(#paint4_linear_1_900)"/>
<path d="M26.2588 130.723L3.51807 117.594L3.51807 91.3348L26.2588 78.2054L48.9996 91.3348L48.9996 117.594L26.2588 130.723Z" fill="url(#paint5_linear_1_900)"/>
</g>
<defs>
<filter id="filter0_d_1_900" x="-1" y="0" width="234.983" height="171.852" filterUnits="userSpaceOnUse" color-interpolation-filters="sRGB">
<feFlood flood-opacity="0" result="BackgroundImageFix"/>
<feColorMatrix in="SourceAlpha" type="matrix" values="0 0 0 0 0 0 0 0 0 0 0 0 0 0 0 0 0 0 127 0" result="hardAlpha"/>
<feOffset dy="1"/>
<feGaussianBlur stdDeviation="0.5"/>
<feComposite in2="hardAlpha" operator="out"/>
<feColorMatrix type="matrix" values="0 0 0 0 1 0 0 0 0 0.541533 0 0 0 0 0.118333 0 0 0 1 0"/>
<feBlend mode="normal" in2="BackgroundImageFix" result="effect1_dropShadow_1_900"/>
<feBlend mode="normal" in="SourceGraphic" in2="effect1_dropShadow_1_900" result="shape"/>
</filter>
<linearGradient id="paint0_linear_1_900" x1="154.996" y1="65.2579" x2="98.9332" y2="65.2579" gradientUnits="userSpaceOnUse">
<stop offset="0.1125" stop-color="#FF8A1E"/>
<stop offset="0.8625" stop-color="#FFF9D8"/>
</linearGradient>
<linearGradient id="paint1_linear_1_900" x1="87.4193" y1="104.378" x2="31.3568" y2="104.378" gradientUnits="userSpaceOnUse">
<stop offset="0.1125" stop-color="#FF8A1E"/>
<stop offset="0.8625" stop-color="#FFF9D8"/>
</linearGradient>
<linearGradient id="paint2_linear_1_900" x1="109.91" y1="65.3182" x2="53.8475" y2="65.3182" gradientUnits="userSpaceOnUse">
<stop offset="0.1125" stop-color="#FF8A1E"/>
<stop offset="0.8625" stop-color="#FFF9D8"/>
</linearGradient>
<linearGradient id="paint3_linear_1_900" x1="132.4" y1="26.2588" x2="76.338" y2="26.2588" gradientUnits="userSpaceOnUse">
<stop offset="0.1125" stop-color="#FF8A1E"/>
<stop offset="0.8625" stop-color="#FFF9D8"/>
</linearGradient>
<linearGradient id="paint4_linear_1_900" x1="64.6561" y1="65.3597" x2="8.59362" y2="65.3597" gradientUnits="userSpaceOnUse">
<stop offset="0.1125" stop-color="#FF8A1E"/>
<stop offset="0.8625" stop-color="#FFF9D8"/>
</linearGradient>
<linearGradient id="paint5_linear_1_900" x1="42.211" y1="104.464" x2="-13.8514" y2="104.464" gradientUnits="userSpaceOnUse">
<stop offset="0.1125" stop-color="#FF8A1E"/>
<stop offset="0.8625" stop-color="#FFF9D8"/>
</linearGradient>
</defs>
</svg>
